# xmcd
#
# Track frame offsets:
#	150
#	7960
#	26232
#	46506
#	62886
#	77983
#	95741
#	112863
#	133890
#	144476
#	164137
#	187786
#	206123
#	218571
#	225535
#	243775
#	256540
#	276710
#	294349
#	318199
#
# Disc length: 4420 seconds
#
# Revision: 0
# Processed by: cddbd v1.5.1PL2 Copyright (c) Steve Scherf et al.
# Submitted via: EasyCDDAExtractor 8.1.2.3
#
DISCID=1a114214
DTITLE=Various Artist - Patrimoine du ghetto
DYEAR=2006
DGENRE=Rap
TTITLE0=Booba - Intro
TTITLE1=Mac Tyer - L'impulsif
TTITLE2=Lino - La revolte !
TTITLE3=6sens - Bienvenue
TTITLE4=Tunisiano - Zine
TTITLE5=James Izmad and Adgi l'haineux - Nouveaux soldats
TTITLE6=Mac Tyer - Tous de passage
TTITLE7=Mac Kregor - Les verites
TTITLE8=Ekoue - 10avrile75
TTITLE9=Mac Tyer and Wallen - Auber c'est pas L.A
TTITLE10=Sefyu, 16ar and Kuanmen - On vit comme on peut
TTITLE11=DMX - Life be my Song
TTITLE12=113 - C'est une question d'honneur
TTITLE13=DMX -  The Prayer VI
TTITLE14=Nessbeal - Enterre Vivant
TTITLE15=Kazkami - Sommes nous les plus hais ?
TTITLE16=Etadam and bigou) - J'voulais dire
TTITLE17=Mac Tyer and Kery James - Patrimoine du ghetto
TTITLE18=Mac Tyer - ange de ghetto
TTITLE19=Akh - Au nom de tous les miens
EXTD=
EXTT0=
EXTT1=
EXTT2=
EXTT3=
EXTT4=
EXTT5=
EXTT6=
EXTT7=
EXTT8=
EXTT9=
EXTT10=
EXTT11=
EXTT12=
EXTT13=
EXTT14=
EXTT15=
EXTT16=
EXTT17=
EXTT18=
EXTT19=
PLAYORDER=
